%TF.GenerationSoftware,KiCad,Pcbnew,8.0.2*%
%TF.CreationDate,2024-06-17T20:12:45-06:00*%
%TF.ProjectId,amplifone-sega-adapter,616d706c-6966-46f6-9e65-2d736567612d,rev?*%
%TF.SameCoordinates,Original*%
%TF.FileFunction,Soldermask,Top*%
%TF.FilePolarity,Negative*%
%FSLAX46Y46*%
G04 Gerber Fmt 4.6, Leading zero omitted, Abs format (unit mm)*
G04 Created by KiCad (PCBNEW 8.0.2) date 2024-06-17 20:12:45*
%MOMM*%
%LPD*%
G01*
G04 APERTURE LIST*
G04 Aperture macros list*
%AMRoundRect*
0 Rectangle with rounded corners*
0 $1 Rounding radius*
0 $2 $3 $4 $5 $6 $7 $8 $9 X,Y pos of 4 corners*
0 Add a 4 corners polygon primitive as box body*
4,1,4,$2,$3,$4,$5,$6,$7,$8,$9,$2,$3,0*
0 Add four circle primitives for the rounded corners*
1,1,$1+$1,$2,$3*
1,1,$1+$1,$4,$5*
1,1,$1+$1,$6,$7*
1,1,$1+$1,$8,$9*
0 Add four rect primitives between the rounded corners*
20,1,$1+$1,$2,$3,$4,$5,0*
20,1,$1+$1,$4,$5,$6,$7,0*
20,1,$1+$1,$6,$7,$8,$9,0*
20,1,$1+$1,$8,$9,$2,$3,0*%
G04 Aperture macros list end*
%ADD10C,0.203200*%
%ADD11C,0.000000*%
%ADD12RoundRect,0.102000X1.000000X-1.000000X1.000000X1.000000X-1.000000X1.000000X-1.000000X-1.000000X0*%
%ADD13C,2.204000*%
%ADD14RoundRect,0.102000X-1.250000X1.250000X-1.250000X-1.250000X1.250000X-1.250000X1.250000X1.250000X0*%
%ADD15C,2.704000*%
%ADD16R,1.300000X1.300000*%
%ADD17C,1.300000*%
%ADD18C,1.400000*%
%ADD19O,1.600000X1.600000*%
%ADD20C,1.600000*%
%ADD21C,0.800000*%
%ADD22C,7.400000*%
%ADD23R,1.000000X1.000000*%
%ADD24R,1.600000X1.600000*%
%ADD25O,1.700000X1.700000*%
%ADD26R,1.700000X1.700000*%
%ADD27C,1.524000*%
G04 APERTURE END LIST*
D10*
X75413809Y-113159169D02*
X75595238Y-113219645D01*
X75595238Y-113219645D02*
X75897619Y-113219645D01*
X75897619Y-113219645D02*
X76018571Y-113159169D01*
X76018571Y-113159169D02*
X76079047Y-113098692D01*
X76079047Y-113098692D02*
X76139524Y-112977740D01*
X76139524Y-112977740D02*
X76139524Y-112856788D01*
X76139524Y-112856788D02*
X76079047Y-112735835D01*
X76079047Y-112735835D02*
X76018571Y-112675359D01*
X76018571Y-112675359D02*
X75897619Y-112614883D01*
X75897619Y-112614883D02*
X75655714Y-112554407D01*
X75655714Y-112554407D02*
X75534762Y-112493930D01*
X75534762Y-112493930D02*
X75474285Y-112433454D01*
X75474285Y-112433454D02*
X75413809Y-112312502D01*
X75413809Y-112312502D02*
X75413809Y-112191549D01*
X75413809Y-112191549D02*
X75474285Y-112070597D01*
X75474285Y-112070597D02*
X75534762Y-112010121D01*
X75534762Y-112010121D02*
X75655714Y-111949645D01*
X75655714Y-111949645D02*
X75958095Y-111949645D01*
X75958095Y-111949645D02*
X76139524Y-112010121D01*
X76683809Y-112554407D02*
X77107143Y-112554407D01*
X77288571Y-113219645D02*
X76683809Y-113219645D01*
X76683809Y-113219645D02*
X76683809Y-111949645D01*
X76683809Y-111949645D02*
X77288571Y-111949645D01*
X78498096Y-112010121D02*
X78377143Y-111949645D01*
X78377143Y-111949645D02*
X78195715Y-111949645D01*
X78195715Y-111949645D02*
X78014286Y-112010121D01*
X78014286Y-112010121D02*
X77893334Y-112131073D01*
X77893334Y-112131073D02*
X77832857Y-112252026D01*
X77832857Y-112252026D02*
X77772381Y-112493930D01*
X77772381Y-112493930D02*
X77772381Y-112675359D01*
X77772381Y-112675359D02*
X77832857Y-112917264D01*
X77832857Y-112917264D02*
X77893334Y-113038216D01*
X77893334Y-113038216D02*
X78014286Y-113159169D01*
X78014286Y-113159169D02*
X78195715Y-113219645D01*
X78195715Y-113219645D02*
X78316667Y-113219645D01*
X78316667Y-113219645D02*
X78498096Y-113159169D01*
X78498096Y-113159169D02*
X78558572Y-113098692D01*
X78558572Y-113098692D02*
X78558572Y-112675359D01*
X78558572Y-112675359D02*
X78316667Y-112675359D01*
X79042381Y-112856788D02*
X79647143Y-112856788D01*
X78921429Y-113219645D02*
X79344762Y-111949645D01*
X79344762Y-111949645D02*
X79768096Y-113219645D01*
X81824286Y-112010121D02*
X81703333Y-111949645D01*
X81703333Y-111949645D02*
X81521905Y-111949645D01*
X81521905Y-111949645D02*
X81340476Y-112010121D01*
X81340476Y-112010121D02*
X81219524Y-112131073D01*
X81219524Y-112131073D02*
X81159047Y-112252026D01*
X81159047Y-112252026D02*
X81098571Y-112493930D01*
X81098571Y-112493930D02*
X81098571Y-112675359D01*
X81098571Y-112675359D02*
X81159047Y-112917264D01*
X81159047Y-112917264D02*
X81219524Y-113038216D01*
X81219524Y-113038216D02*
X81340476Y-113159169D01*
X81340476Y-113159169D02*
X81521905Y-113219645D01*
X81521905Y-113219645D02*
X81642857Y-113219645D01*
X81642857Y-113219645D02*
X81824286Y-113159169D01*
X81824286Y-113159169D02*
X81884762Y-113098692D01*
X81884762Y-113098692D02*
X81884762Y-112675359D01*
X81884762Y-112675359D02*
X81642857Y-112675359D01*
X82610476Y-112493930D02*
X82489524Y-112433454D01*
X82489524Y-112433454D02*
X82429047Y-112372978D01*
X82429047Y-112372978D02*
X82368571Y-112252026D01*
X82368571Y-112252026D02*
X82368571Y-112191549D01*
X82368571Y-112191549D02*
X82429047Y-112070597D01*
X82429047Y-112070597D02*
X82489524Y-112010121D01*
X82489524Y-112010121D02*
X82610476Y-111949645D01*
X82610476Y-111949645D02*
X82852381Y-111949645D01*
X82852381Y-111949645D02*
X82973333Y-112010121D01*
X82973333Y-112010121D02*
X83033809Y-112070597D01*
X83033809Y-112070597D02*
X83094286Y-112191549D01*
X83094286Y-112191549D02*
X83094286Y-112252026D01*
X83094286Y-112252026D02*
X83033809Y-112372978D01*
X83033809Y-112372978D02*
X82973333Y-112433454D01*
X82973333Y-112433454D02*
X82852381Y-112493930D01*
X82852381Y-112493930D02*
X82610476Y-112493930D01*
X82610476Y-112493930D02*
X82489524Y-112554407D01*
X82489524Y-112554407D02*
X82429047Y-112614883D01*
X82429047Y-112614883D02*
X82368571Y-112735835D01*
X82368571Y-112735835D02*
X82368571Y-112977740D01*
X82368571Y-112977740D02*
X82429047Y-113098692D01*
X82429047Y-113098692D02*
X82489524Y-113159169D01*
X82489524Y-113159169D02*
X82610476Y-113219645D01*
X82610476Y-113219645D02*
X82852381Y-113219645D01*
X82852381Y-113219645D02*
X82973333Y-113159169D01*
X82973333Y-113159169D02*
X83033809Y-113098692D01*
X83033809Y-113098692D02*
X83094286Y-112977740D01*
X83094286Y-112977740D02*
X83094286Y-112735835D01*
X83094286Y-112735835D02*
X83033809Y-112614883D01*
X83033809Y-112614883D02*
X82973333Y-112554407D01*
X82973333Y-112554407D02*
X82852381Y-112493930D01*
X83880476Y-111949645D02*
X84001429Y-111949645D01*
X84001429Y-111949645D02*
X84122381Y-112010121D01*
X84122381Y-112010121D02*
X84182857Y-112070597D01*
X84182857Y-112070597D02*
X84243333Y-112191549D01*
X84243333Y-112191549D02*
X84303810Y-112433454D01*
X84303810Y-112433454D02*
X84303810Y-112735835D01*
X84303810Y-112735835D02*
X84243333Y-112977740D01*
X84243333Y-112977740D02*
X84182857Y-113098692D01*
X84182857Y-113098692D02*
X84122381Y-113159169D01*
X84122381Y-113159169D02*
X84001429Y-113219645D01*
X84001429Y-113219645D02*
X83880476Y-113219645D01*
X83880476Y-113219645D02*
X83759524Y-113159169D01*
X83759524Y-113159169D02*
X83699048Y-113098692D01*
X83699048Y-113098692D02*
X83638571Y-112977740D01*
X83638571Y-112977740D02*
X83578095Y-112735835D01*
X83578095Y-112735835D02*
X83578095Y-112433454D01*
X83578095Y-112433454D02*
X83638571Y-112191549D01*
X83638571Y-112191549D02*
X83699048Y-112070597D01*
X83699048Y-112070597D02*
X83759524Y-112010121D01*
X83759524Y-112010121D02*
X83880476Y-111949645D01*
X85634286Y-111949645D02*
X86360000Y-111949645D01*
X85997143Y-113219645D02*
X85997143Y-111949645D01*
X87025238Y-111949645D02*
X87267143Y-111949645D01*
X87267143Y-111949645D02*
X87388095Y-112010121D01*
X87388095Y-112010121D02*
X87509048Y-112131073D01*
X87509048Y-112131073D02*
X87569524Y-112372978D01*
X87569524Y-112372978D02*
X87569524Y-112796311D01*
X87569524Y-112796311D02*
X87509048Y-113038216D01*
X87509048Y-113038216D02*
X87388095Y-113159169D01*
X87388095Y-113159169D02*
X87267143Y-113219645D01*
X87267143Y-113219645D02*
X87025238Y-113219645D01*
X87025238Y-113219645D02*
X86904286Y-113159169D01*
X86904286Y-113159169D02*
X86783333Y-113038216D01*
X86783333Y-113038216D02*
X86722857Y-112796311D01*
X86722857Y-112796311D02*
X86722857Y-112372978D01*
X86722857Y-112372978D02*
X86783333Y-112131073D01*
X86783333Y-112131073D02*
X86904286Y-112010121D01*
X86904286Y-112010121D02*
X87025238Y-111949645D01*
X89020952Y-112856788D02*
X89625714Y-112856788D01*
X88900000Y-113219645D02*
X89323333Y-111949645D01*
X89323333Y-111949645D02*
X89746667Y-113219645D01*
X90169999Y-113219645D02*
X90169999Y-111949645D01*
X90169999Y-111949645D02*
X90593333Y-112856788D01*
X90593333Y-112856788D02*
X91016666Y-111949645D01*
X91016666Y-111949645D02*
X91016666Y-113219645D01*
X91621428Y-113219645D02*
X91621428Y-111949645D01*
X91621428Y-111949645D02*
X92105238Y-111949645D01*
X92105238Y-111949645D02*
X92226190Y-112010121D01*
X92226190Y-112010121D02*
X92286667Y-112070597D01*
X92286667Y-112070597D02*
X92347143Y-112191549D01*
X92347143Y-112191549D02*
X92347143Y-112372978D01*
X92347143Y-112372978D02*
X92286667Y-112493930D01*
X92286667Y-112493930D02*
X92226190Y-112554407D01*
X92226190Y-112554407D02*
X92105238Y-112614883D01*
X92105238Y-112614883D02*
X91621428Y-112614883D01*
X93496190Y-113219645D02*
X92891428Y-113219645D01*
X92891428Y-113219645D02*
X92891428Y-111949645D01*
X93919523Y-113219645D02*
X93919523Y-111949645D01*
X94947619Y-112554407D02*
X94524285Y-112554407D01*
X94524285Y-113219645D02*
X94524285Y-111949645D01*
X94524285Y-111949645D02*
X95129047Y-111949645D01*
X95854761Y-111949645D02*
X96096666Y-111949645D01*
X96096666Y-111949645D02*
X96217618Y-112010121D01*
X96217618Y-112010121D02*
X96338571Y-112131073D01*
X96338571Y-112131073D02*
X96399047Y-112372978D01*
X96399047Y-112372978D02*
X96399047Y-112796311D01*
X96399047Y-112796311D02*
X96338571Y-113038216D01*
X96338571Y-113038216D02*
X96217618Y-113159169D01*
X96217618Y-113159169D02*
X96096666Y-113219645D01*
X96096666Y-113219645D02*
X95854761Y-113219645D01*
X95854761Y-113219645D02*
X95733809Y-113159169D01*
X95733809Y-113159169D02*
X95612856Y-113038216D01*
X95612856Y-113038216D02*
X95552380Y-112796311D01*
X95552380Y-112796311D02*
X95552380Y-112372978D01*
X95552380Y-112372978D02*
X95612856Y-112131073D01*
X95612856Y-112131073D02*
X95733809Y-112010121D01*
X95733809Y-112010121D02*
X95854761Y-111949645D01*
X96943332Y-113219645D02*
X96943332Y-111949645D01*
X96943332Y-111949645D02*
X97669047Y-113219645D01*
X97669047Y-113219645D02*
X97669047Y-111949645D01*
X98273808Y-112554407D02*
X98697142Y-112554407D01*
X98878570Y-113219645D02*
X98273808Y-113219645D01*
X98273808Y-113219645D02*
X98273808Y-111949645D01*
X98273808Y-111949645D02*
X98878570Y-111949645D01*
X77590952Y-113994274D02*
X78316666Y-113994274D01*
X77953809Y-115264274D02*
X77953809Y-113994274D01*
X79465714Y-115264274D02*
X79042380Y-114659512D01*
X78739999Y-115264274D02*
X78739999Y-113994274D01*
X78739999Y-113994274D02*
X79223809Y-113994274D01*
X79223809Y-113994274D02*
X79344761Y-114054750D01*
X79344761Y-114054750D02*
X79405238Y-114115226D01*
X79405238Y-114115226D02*
X79465714Y-114236178D01*
X79465714Y-114236178D02*
X79465714Y-114417607D01*
X79465714Y-114417607D02*
X79405238Y-114538559D01*
X79405238Y-114538559D02*
X79344761Y-114599036D01*
X79344761Y-114599036D02*
X79223809Y-114659512D01*
X79223809Y-114659512D02*
X78739999Y-114659512D01*
X79949523Y-114901417D02*
X80554285Y-114901417D01*
X79828571Y-115264274D02*
X80251904Y-113994274D01*
X80251904Y-113994274D02*
X80675238Y-115264274D01*
X81098570Y-115264274D02*
X81098570Y-113994274D01*
X81098570Y-113994274D02*
X81824285Y-115264274D01*
X81824285Y-115264274D02*
X81824285Y-113994274D01*
X82368570Y-115203798D02*
X82549999Y-115264274D01*
X82549999Y-115264274D02*
X82852380Y-115264274D01*
X82852380Y-115264274D02*
X82973332Y-115203798D01*
X82973332Y-115203798D02*
X83033808Y-115143321D01*
X83033808Y-115143321D02*
X83094285Y-115022369D01*
X83094285Y-115022369D02*
X83094285Y-114901417D01*
X83094285Y-114901417D02*
X83033808Y-114780464D01*
X83033808Y-114780464D02*
X82973332Y-114719988D01*
X82973332Y-114719988D02*
X82852380Y-114659512D01*
X82852380Y-114659512D02*
X82610475Y-114599036D01*
X82610475Y-114599036D02*
X82489523Y-114538559D01*
X82489523Y-114538559D02*
X82429046Y-114478083D01*
X82429046Y-114478083D02*
X82368570Y-114357131D01*
X82368570Y-114357131D02*
X82368570Y-114236178D01*
X82368570Y-114236178D02*
X82429046Y-114115226D01*
X82429046Y-114115226D02*
X82489523Y-114054750D01*
X82489523Y-114054750D02*
X82610475Y-113994274D01*
X82610475Y-113994274D02*
X82912856Y-113994274D01*
X82912856Y-113994274D02*
X83094285Y-114054750D01*
X84243332Y-115264274D02*
X83638570Y-115264274D01*
X83638570Y-115264274D02*
X83638570Y-113994274D01*
X84606189Y-114901417D02*
X85210951Y-114901417D01*
X84485237Y-115264274D02*
X84908570Y-113994274D01*
X84908570Y-113994274D02*
X85331904Y-115264274D01*
X85573808Y-113994274D02*
X86299522Y-113994274D01*
X85936665Y-115264274D02*
X85936665Y-113994274D01*
X86964760Y-113994274D02*
X87206665Y-113994274D01*
X87206665Y-113994274D02*
X87327617Y-114054750D01*
X87327617Y-114054750D02*
X87448570Y-114175702D01*
X87448570Y-114175702D02*
X87509046Y-114417607D01*
X87509046Y-114417607D02*
X87509046Y-114840940D01*
X87509046Y-114840940D02*
X87448570Y-115082845D01*
X87448570Y-115082845D02*
X87327617Y-115203798D01*
X87327617Y-115203798D02*
X87206665Y-115264274D01*
X87206665Y-115264274D02*
X86964760Y-115264274D01*
X86964760Y-115264274D02*
X86843808Y-115203798D01*
X86843808Y-115203798D02*
X86722855Y-115082845D01*
X86722855Y-115082845D02*
X86662379Y-114840940D01*
X86662379Y-114840940D02*
X86662379Y-114417607D01*
X86662379Y-114417607D02*
X86722855Y-114175702D01*
X86722855Y-114175702D02*
X86843808Y-114054750D01*
X86843808Y-114054750D02*
X86964760Y-113994274D01*
X88779046Y-115264274D02*
X88355712Y-114659512D01*
X88053331Y-115264274D02*
X88053331Y-113994274D01*
X88053331Y-113994274D02*
X88537141Y-113994274D01*
X88537141Y-113994274D02*
X88658093Y-114054750D01*
X88658093Y-114054750D02*
X88718570Y-114115226D01*
X88718570Y-114115226D02*
X88779046Y-114236178D01*
X88779046Y-114236178D02*
X88779046Y-114417607D01*
X88779046Y-114417607D02*
X88718570Y-114538559D01*
X88718570Y-114538559D02*
X88658093Y-114599036D01*
X88658093Y-114599036D02*
X88537141Y-114659512D01*
X88537141Y-114659512D02*
X88053331Y-114659512D01*
X90653808Y-115748083D02*
X90593331Y-115687607D01*
X90593331Y-115687607D02*
X90472379Y-115506178D01*
X90472379Y-115506178D02*
X90411903Y-115385226D01*
X90411903Y-115385226D02*
X90351427Y-115203798D01*
X90351427Y-115203798D02*
X90290950Y-114901417D01*
X90290950Y-114901417D02*
X90290950Y-114659512D01*
X90290950Y-114659512D02*
X90351427Y-114357131D01*
X90351427Y-114357131D02*
X90411903Y-114175702D01*
X90411903Y-114175702D02*
X90472379Y-114054750D01*
X90472379Y-114054750D02*
X90593331Y-113873321D01*
X90593331Y-113873321D02*
X90653808Y-113812845D01*
X91863332Y-115143321D02*
X91802856Y-115203798D01*
X91802856Y-115203798D02*
X91621427Y-115264274D01*
X91621427Y-115264274D02*
X91500475Y-115264274D01*
X91500475Y-115264274D02*
X91319046Y-115203798D01*
X91319046Y-115203798D02*
X91198094Y-115082845D01*
X91198094Y-115082845D02*
X91137617Y-114961893D01*
X91137617Y-114961893D02*
X91077141Y-114719988D01*
X91077141Y-114719988D02*
X91077141Y-114538559D01*
X91077141Y-114538559D02*
X91137617Y-114296655D01*
X91137617Y-114296655D02*
X91198094Y-114175702D01*
X91198094Y-114175702D02*
X91319046Y-114054750D01*
X91319046Y-114054750D02*
X91500475Y-113994274D01*
X91500475Y-113994274D02*
X91621427Y-113994274D01*
X91621427Y-113994274D02*
X91802856Y-114054750D01*
X91802856Y-114054750D02*
X91863332Y-114115226D01*
X92286665Y-115748083D02*
X92347141Y-115687607D01*
X92347141Y-115687607D02*
X92468094Y-115506178D01*
X92468094Y-115506178D02*
X92528570Y-115385226D01*
X92528570Y-115385226D02*
X92589046Y-115203798D01*
X92589046Y-115203798D02*
X92649522Y-114901417D01*
X92649522Y-114901417D02*
X92649522Y-114659512D01*
X92649522Y-114659512D02*
X92589046Y-114357131D01*
X92589046Y-114357131D02*
X92528570Y-114175702D01*
X92528570Y-114175702D02*
X92468094Y-114054750D01*
X92468094Y-114054750D02*
X92347141Y-113873321D01*
X92347141Y-113873321D02*
X92286665Y-113812845D01*
X93193808Y-114115226D02*
X93254284Y-114054750D01*
X93254284Y-114054750D02*
X93375237Y-113994274D01*
X93375237Y-113994274D02*
X93677618Y-113994274D01*
X93677618Y-113994274D02*
X93798570Y-114054750D01*
X93798570Y-114054750D02*
X93859046Y-114115226D01*
X93859046Y-114115226D02*
X93919523Y-114236178D01*
X93919523Y-114236178D02*
X93919523Y-114357131D01*
X93919523Y-114357131D02*
X93859046Y-114538559D01*
X93859046Y-114538559D02*
X93133332Y-115264274D01*
X93133332Y-115264274D02*
X93919523Y-115264274D01*
X94705713Y-113994274D02*
X94826666Y-113994274D01*
X94826666Y-113994274D02*
X94947618Y-114054750D01*
X94947618Y-114054750D02*
X95008094Y-114115226D01*
X95008094Y-114115226D02*
X95068570Y-114236178D01*
X95068570Y-114236178D02*
X95129047Y-114478083D01*
X95129047Y-114478083D02*
X95129047Y-114780464D01*
X95129047Y-114780464D02*
X95068570Y-115022369D01*
X95068570Y-115022369D02*
X95008094Y-115143321D01*
X95008094Y-115143321D02*
X94947618Y-115203798D01*
X94947618Y-115203798D02*
X94826666Y-115264274D01*
X94826666Y-115264274D02*
X94705713Y-115264274D01*
X94705713Y-115264274D02*
X94584761Y-115203798D01*
X94584761Y-115203798D02*
X94524285Y-115143321D01*
X94524285Y-115143321D02*
X94463808Y-115022369D01*
X94463808Y-115022369D02*
X94403332Y-114780464D01*
X94403332Y-114780464D02*
X94403332Y-114478083D01*
X94403332Y-114478083D02*
X94463808Y-114236178D01*
X94463808Y-114236178D02*
X94524285Y-114115226D01*
X94524285Y-114115226D02*
X94584761Y-114054750D01*
X94584761Y-114054750D02*
X94705713Y-113994274D01*
X95612856Y-114115226D02*
X95673332Y-114054750D01*
X95673332Y-114054750D02*
X95794285Y-113994274D01*
X95794285Y-113994274D02*
X96096666Y-113994274D01*
X96096666Y-113994274D02*
X96217618Y-114054750D01*
X96217618Y-114054750D02*
X96278094Y-114115226D01*
X96278094Y-114115226D02*
X96338571Y-114236178D01*
X96338571Y-114236178D02*
X96338571Y-114357131D01*
X96338571Y-114357131D02*
X96278094Y-114538559D01*
X96278094Y-114538559D02*
X95552380Y-115264274D01*
X95552380Y-115264274D02*
X96338571Y-115264274D01*
X97427142Y-114417607D02*
X97427142Y-115264274D01*
X97124761Y-113933798D02*
X96822380Y-114840940D01*
X96822380Y-114840940D02*
X97608571Y-114840940D01*
D11*
%TO.C,G\u002A\u002A\u002A*%
G36*
X103412631Y-113043723D02*
G01*
X103413929Y-113269529D01*
X104626542Y-113269529D01*
X104627841Y-113043723D01*
X104629139Y-112817918D01*
X105083143Y-112817918D01*
X105083143Y-113272024D01*
X105686955Y-113272024D01*
X105686955Y-113725983D01*
X105988861Y-113728625D01*
X105990159Y-113954391D01*
X105991457Y-114180158D01*
X106292065Y-114181444D01*
X106592672Y-114182731D01*
X106593937Y-114865177D01*
X106595203Y-115547622D01*
X106294527Y-115546336D01*
X105993851Y-115545049D01*
X105988861Y-114636837D01*
X105849136Y-114635437D01*
X105812254Y-114635167D01*
X105778215Y-114635107D01*
X105748420Y-114635243D01*
X105724270Y-114635564D01*
X105707166Y-114636058D01*
X105698510Y-114636711D01*
X105698183Y-114636780D01*
X105686955Y-114639522D01*
X105686955Y-115547544D01*
X105232950Y-115547544D01*
X105231652Y-115773350D01*
X105230354Y-115999155D01*
X104172436Y-115999155D01*
X104171138Y-115773376D01*
X104169839Y-115547597D01*
X104625244Y-115546323D01*
X105080648Y-115545049D01*
X105081947Y-115319244D01*
X105083245Y-115093438D01*
X102957226Y-115093438D01*
X102958525Y-115319244D01*
X102959823Y-115545049D01*
X103415228Y-115546323D01*
X103870632Y-115547597D01*
X103869334Y-115773376D01*
X103868035Y-115999155D01*
X103341179Y-116000426D01*
X103269500Y-116000567D01*
X103200635Y-116000642D01*
X103135239Y-116000654D01*
X103073967Y-116000604D01*
X103017476Y-116000496D01*
X102966420Y-116000332D01*
X102921457Y-116000114D01*
X102883240Y-115999846D01*
X102852427Y-115999529D01*
X102829673Y-115999166D01*
X102815634Y-115998760D01*
X102810972Y-115998346D01*
X102810280Y-115992814D01*
X102809636Y-115978320D01*
X102809055Y-115955880D01*
X102808553Y-115926514D01*
X102808144Y-115891239D01*
X102807843Y-115851072D01*
X102807666Y-115807031D01*
X102807623Y-115771271D01*
X102807623Y-115547544D01*
X102353517Y-115547544D01*
X102353517Y-114639522D01*
X102342289Y-114636780D01*
X102334492Y-114636112D01*
X102318118Y-114635603D01*
X102294566Y-114635266D01*
X102265239Y-114635111D01*
X102231537Y-114635153D01*
X102194862Y-114635403D01*
X102191336Y-114635437D01*
X102051611Y-114636837D01*
X102046621Y-115545049D01*
X101745945Y-115546336D01*
X101445269Y-115547622D01*
X101446534Y-114865177D01*
X101447800Y-114182731D01*
X101748407Y-114181444D01*
X102030781Y-114180236D01*
X102807521Y-114180236D01*
X103261729Y-114180236D01*
X104628936Y-114180236D01*
X105083143Y-114180236D01*
X105083143Y-113731310D01*
X105071916Y-113728581D01*
X105064662Y-113728035D01*
X105048519Y-113727589D01*
X105024578Y-113727249D01*
X104993931Y-113727023D01*
X104957668Y-113726917D01*
X104916880Y-113726936D01*
X104872659Y-113727089D01*
X104846110Y-113727239D01*
X104631532Y-113728625D01*
X104630234Y-113954430D01*
X104628936Y-114180236D01*
X103261729Y-114180236D01*
X103261729Y-113726028D01*
X103035923Y-113727326D01*
X102810118Y-113728625D01*
X102808819Y-113954430D01*
X102807521Y-114180236D01*
X102030781Y-114180236D01*
X102049014Y-114180158D01*
X102050313Y-113954391D01*
X102051611Y-113728625D01*
X102353517Y-113725983D01*
X102353517Y-113272024D01*
X102957328Y-113272024D01*
X102957328Y-112817918D01*
X103411332Y-112817918D01*
X103412631Y-113043723D01*
G37*
G36*
X105686955Y-112817918D02*
G01*
X105083143Y-112817918D01*
X105083143Y-112363811D01*
X105686955Y-112363811D01*
X105686955Y-112817918D01*
G37*
G36*
X102957328Y-112817918D02*
G01*
X102353517Y-112817918D01*
X102353517Y-112363811D01*
X102957328Y-112363811D01*
X102957328Y-112817918D01*
G37*
%TD*%
D12*
%TO.C,PS1*%
X53340000Y-111760000D03*
D13*
X53340000Y-109220000D03*
X53340000Y-104140000D03*
X53340000Y-101600000D03*
X53340000Y-99060000D03*
%TD*%
D14*
%TO.C,J4*%
X114300000Y-40640000D03*
D15*
X114300000Y-44600000D03*
X114300000Y-48560000D03*
X114300000Y-52520000D03*
%TD*%
D14*
%TO.C,J3*%
X114300000Y-78740000D03*
D15*
X114300000Y-82700000D03*
X114300000Y-86660000D03*
X114300000Y-90620000D03*
%TD*%
D14*
%TO.C,J1*%
X27940000Y-78740000D03*
D15*
X27940000Y-82700000D03*
X27940000Y-86660000D03*
X27940000Y-90620000D03*
%TD*%
D14*
%TO.C,J2*%
X27940000Y-40640000D03*
D15*
X27940000Y-44600000D03*
X27940000Y-48560000D03*
X27940000Y-52520000D03*
%TD*%
D16*
%TO.C,U6*%
X81280000Y-101600000D03*
D17*
X80010000Y-100330000D03*
X81280000Y-99060000D03*
%TD*%
D16*
%TO.C,U7*%
X67310000Y-99060000D03*
D17*
X66040000Y-100330000D03*
X64770000Y-99060000D03*
%TD*%
D16*
%TO.C,U8*%
X66040000Y-107950000D03*
D17*
X64770000Y-106680000D03*
X66040000Y-105410000D03*
%TD*%
D18*
%TO.C,C24*%
X86360000Y-45680000D03*
X86360000Y-43180000D03*
%TD*%
D19*
%TO.C,R3*%
X43140000Y-81280000D03*
D20*
X43140000Y-71120000D03*
%TD*%
D19*
%TO.C,R9*%
X104140000Y-43180000D03*
D20*
X93980000Y-43180000D03*
%TD*%
D18*
%TO.C,C9*%
X65960000Y-76200000D03*
X63460000Y-76200000D03*
%TD*%
%TO.C,C33*%
X35560000Y-53380000D03*
X35560000Y-55880000D03*
%TD*%
D21*
%TO.C,H1*%
X30715000Y-27940000D03*
X29902221Y-29902221D03*
X29902221Y-25977779D03*
X27940000Y-30715000D03*
D22*
X27940000Y-27940000D03*
D21*
X27940000Y-25165000D03*
X25977779Y-29902221D03*
X25977779Y-25977779D03*
X25165000Y-27940000D03*
%TD*%
%TO.C,H3*%
X30715000Y-114300000D03*
X29902221Y-116262221D03*
X29902221Y-112337779D03*
X27940000Y-117075000D03*
D22*
X27940000Y-114300000D03*
D21*
X27940000Y-111525000D03*
X25977779Y-116262221D03*
X25977779Y-112337779D03*
X25165000Y-114300000D03*
%TD*%
D19*
%TO.C,R21*%
X53340000Y-55880000D03*
D20*
X53340000Y-45720000D03*
%TD*%
D18*
%TO.C,C30*%
X58420000Y-53360000D03*
X58420000Y-55860000D03*
%TD*%
D19*
%TO.C,R7*%
X93980000Y-60960000D03*
D20*
X83820000Y-60960000D03*
%TD*%
D18*
%TO.C,C16*%
X71120000Y-60920000D03*
X71120000Y-58420000D03*
%TD*%
D23*
%TO.C,TP12*%
X43180000Y-66040000D03*
%TD*%
D19*
%TO.C,R8*%
X48220000Y-71120000D03*
D20*
X48220000Y-81280000D03*
%TD*%
D19*
%TO.C,U5*%
X45720000Y-55880000D03*
X43180000Y-55880000D03*
X40640000Y-55880000D03*
X38100000Y-55880000D03*
X38100000Y-48260000D03*
X40640000Y-48260000D03*
X43180000Y-48260000D03*
D24*
X45720000Y-48260000D03*
%TD*%
D23*
%TO.C,TP6*%
X78740000Y-27940000D03*
%TD*%
D19*
%TO.C,R5*%
X38060000Y-81280000D03*
D20*
X38060000Y-71120000D03*
%TD*%
D23*
%TO.C,TP9*%
X71120000Y-72390000D03*
%TD*%
D18*
%TO.C,C4*%
X86360000Y-53380000D03*
X86360000Y-55880000D03*
%TD*%
D19*
%TO.C,R22*%
X43180000Y-38100000D03*
D20*
X53340000Y-38100000D03*
%TD*%
D18*
%TO.C,C15*%
X73660000Y-60920000D03*
X73660000Y-58420000D03*
%TD*%
%TO.C,C31*%
X60960000Y-53380000D03*
X60960000Y-55880000D03*
%TD*%
D19*
%TO.C,R2*%
X104140000Y-55880000D03*
D20*
X104140000Y-45720000D03*
%TD*%
D23*
%TO.C,TP2*%
X71120000Y-111760000D03*
%TD*%
%TO.C,TP1*%
X71120000Y-93980000D03*
%TD*%
D19*
%TO.C,U4*%
X99060000Y-78740000D03*
X99060000Y-81280000D03*
X99060000Y-83820000D03*
X99060000Y-86360000D03*
X91440000Y-86360000D03*
X91440000Y-83820000D03*
X91440000Y-81280000D03*
D24*
X91440000Y-78740000D03*
%TD*%
D19*
%TO.C,R25*%
X43180000Y-60960000D03*
D20*
X33020000Y-60960000D03*
%TD*%
D23*
%TO.C,TP7*%
X53340000Y-27940000D03*
%TD*%
D18*
%TO.C,C12*%
X104100000Y-78740000D03*
X101600000Y-78740000D03*
%TD*%
%TO.C,C10*%
X66000000Y-78740000D03*
X63500000Y-78740000D03*
%TD*%
D23*
%TO.C,TP10*%
X93980000Y-66040000D03*
%TD*%
D18*
%TO.C,C6*%
X71120000Y-101560000D03*
X71120000Y-99060000D03*
%TD*%
%TO.C,C19*%
X50760000Y-86360000D03*
X48260000Y-86360000D03*
%TD*%
%TO.C,C21*%
X88860000Y-86360000D03*
X86360000Y-86360000D03*
%TD*%
D19*
%TO.C,R6*%
X104140000Y-33020000D03*
D20*
X93980000Y-33020000D03*
%TD*%
D23*
%TO.C,TP13*%
X69215000Y-83820000D03*
%TD*%
D21*
%TO.C,H4*%
X117075000Y-114300000D03*
X116262221Y-116262221D03*
X116262221Y-112337779D03*
X114300000Y-117075000D03*
D22*
X114300000Y-114300000D03*
D21*
X114300000Y-111525000D03*
X112337779Y-116262221D03*
X112337779Y-112337779D03*
X111525000Y-114300000D03*
%TD*%
D18*
%TO.C,C5*%
X60960000Y-101560000D03*
X60960000Y-99060000D03*
%TD*%
D19*
%TO.C,R11*%
X78740000Y-55880000D03*
D20*
X78740000Y-45720000D03*
%TD*%
D23*
%TO.C,TP8*%
X33020000Y-72390000D03*
%TD*%
D20*
%TO.C,C29*%
X42240000Y-109220000D03*
X42240000Y-111720000D03*
%TD*%
D18*
%TO.C,C1*%
X76200000Y-101560000D03*
X76200000Y-99060000D03*
%TD*%
D19*
%TO.C,R17*%
X68580000Y-60960000D03*
D20*
X58420000Y-60960000D03*
%TD*%
D19*
%TO.C,R13*%
X68580000Y-38100000D03*
D20*
X78740000Y-38100000D03*
%TD*%
D19*
%TO.C,R10*%
X66000000Y-81280000D03*
D20*
X66000000Y-91440000D03*
%TD*%
D18*
%TO.C,C2*%
X86360000Y-101560000D03*
X86360000Y-99060000D03*
%TD*%
D19*
%TO.C,R4*%
X93980000Y-38100000D03*
D20*
X104140000Y-38100000D03*
%TD*%
D19*
%TO.C,R18*%
X78740000Y-43180000D03*
D20*
X68580000Y-43180000D03*
%TD*%
D18*
%TO.C,C32*%
X33020000Y-53380000D03*
X33020000Y-55880000D03*
%TD*%
%TO.C,C17*%
X48260000Y-60920000D03*
X48260000Y-58420000D03*
%TD*%
D19*
%TO.C,R23*%
X53340000Y-33020000D03*
D20*
X43180000Y-33020000D03*
%TD*%
D18*
%TO.C,C26*%
X60960000Y-45720000D03*
X60960000Y-43220000D03*
%TD*%
%TO.C,C18*%
X45720000Y-60920000D03*
X45720000Y-58420000D03*
%TD*%
D19*
%TO.C,U2*%
X96520000Y-55880000D03*
X93980000Y-55880000D03*
X91440000Y-55880000D03*
X88900000Y-55880000D03*
X88900000Y-48260000D03*
X91440000Y-48260000D03*
X93980000Y-48260000D03*
D24*
X96520000Y-48260000D03*
%TD*%
D23*
%TO.C,TP3*%
X86360000Y-93980000D03*
%TD*%
D19*
%TO.C,U1*%
X60920000Y-78740000D03*
X60920000Y-81280000D03*
X60920000Y-83820000D03*
X60920000Y-86360000D03*
X53300000Y-86360000D03*
X53300000Y-83820000D03*
X53300000Y-81280000D03*
D24*
X53300000Y-78740000D03*
%TD*%
D19*
%TO.C,R15*%
X78740000Y-33020000D03*
D20*
X68580000Y-33020000D03*
%TD*%
D18*
%TO.C,C7*%
X60960000Y-109180000D03*
X60960000Y-106680000D03*
%TD*%
D19*
%TO.C,R26*%
X100330000Y-102870000D03*
D20*
X90170000Y-102870000D03*
%TD*%
D19*
%TO.C,R16*%
X76200000Y-81280000D03*
D20*
X76200000Y-71120000D03*
%TD*%
D19*
%TO.C,R19*%
X86360000Y-71120000D03*
D20*
X86360000Y-81280000D03*
%TD*%
D19*
%TO.C,R27*%
X53340000Y-43180000D03*
D20*
X43180000Y-43180000D03*
%TD*%
D18*
%TO.C,C13*%
X99060000Y-60920000D03*
X99060000Y-58420000D03*
%TD*%
%TO.C,C23*%
X88900000Y-45680000D03*
X88900000Y-43180000D03*
%TD*%
D19*
%TO.C,U3*%
X71120000Y-55880000D03*
X68580000Y-55880000D03*
X66040000Y-55880000D03*
X63500000Y-55880000D03*
X63500000Y-48260000D03*
X66040000Y-48260000D03*
X68580000Y-48260000D03*
D24*
X71120000Y-48260000D03*
%TD*%
D19*
%TO.C,R12*%
X99060000Y-71120000D03*
D20*
X88900000Y-71120000D03*
%TD*%
D25*
%TO.C,J0*%
X37160000Y-111720000D03*
X37160000Y-109180000D03*
D26*
X37160000Y-106640000D03*
%TD*%
D27*
%TO.C,L1*%
X48990000Y-111760000D03*
X46990000Y-111760000D03*
%TD*%
D18*
%TO.C,C28*%
X35560000Y-45680000D03*
X35560000Y-43180000D03*
%TD*%
D23*
%TO.C,TP4*%
X100330000Y-93980000D03*
%TD*%
D19*
%TO.C,R20*%
X104140000Y-81280000D03*
D20*
X104140000Y-91440000D03*
%TD*%
D19*
%TO.C,R14*%
X81280000Y-81280000D03*
D20*
X81280000Y-71120000D03*
%TD*%
D18*
%TO.C,C25*%
X63500000Y-45720000D03*
X63500000Y-43220000D03*
%TD*%
%TO.C,C20*%
X50760000Y-88900000D03*
X48260000Y-88900000D03*
%TD*%
D21*
%TO.C,H2*%
X117075000Y-27940000D03*
X116262221Y-29902221D03*
X116262221Y-25977779D03*
X114300000Y-30715000D03*
D22*
X114300000Y-27940000D03*
D21*
X114300000Y-25165000D03*
X112337779Y-29902221D03*
X112337779Y-25977779D03*
X111525000Y-27940000D03*
%TD*%
D19*
%TO.C,R24*%
X90170000Y-99060000D03*
D20*
X100330000Y-99060000D03*
%TD*%
D18*
%TO.C,C8*%
X71120000Y-107910000D03*
X71120000Y-105410000D03*
%TD*%
%TO.C,C14*%
X96520000Y-60920000D03*
X96520000Y-58420000D03*
%TD*%
D23*
%TO.C,TP11*%
X68580000Y-66040000D03*
%TD*%
D19*
%TO.C,R1*%
X60920000Y-71120000D03*
D20*
X50760000Y-71120000D03*
%TD*%
D23*
%TO.C,TP14*%
X107315000Y-83820000D03*
%TD*%
D18*
%TO.C,C22*%
X88860000Y-88900000D03*
X86360000Y-88900000D03*
%TD*%
%TO.C,C3*%
X83820000Y-53340000D03*
X83820000Y-55840000D03*
%TD*%
%TO.C,C27*%
X38100000Y-45720000D03*
X38100000Y-43220000D03*
%TD*%
D23*
%TO.C,TP5*%
X104140000Y-27940000D03*
%TD*%
D18*
%TO.C,C11*%
X104100000Y-76200000D03*
X101600000Y-76200000D03*
%TD*%
M02*
