%TF.GenerationSoftware,KiCad,Pcbnew,8.0.2*%
%TF.CreationDate,2024-06-01T12:45:59-06:00*%
%TF.ProjectId,amplifone-sega-adapter,616d706c-6966-46f6-9e65-2d736567612d,rev?*%
%TF.SameCoordinates,Original*%
%TF.FileFunction,Soldermask,Bot*%
%TF.FilePolarity,Negative*%
%FSLAX46Y46*%
G04 Gerber Fmt 4.6, Leading zero omitted, Abs format (unit mm)*
G04 Created by KiCad (PCBNEW 8.0.2) date 2024-06-01 12:45:59*
%MOMM*%
%LPD*%
G01*
G04 APERTURE LIST*
G04 Aperture macros list*
%AMRoundRect*
0 Rectangle with rounded corners*
0 $1 Rounding radius*
0 $2 $3 $4 $5 $6 $7 $8 $9 X,Y pos of 4 corners*
0 Add a 4 corners polygon primitive as box body*
4,1,4,$2,$3,$4,$5,$6,$7,$8,$9,$2,$3,0*
0 Add four circle primitives for the rounded corners*
1,1,$1+$1,$2,$3*
1,1,$1+$1,$4,$5*
1,1,$1+$1,$6,$7*
1,1,$1+$1,$8,$9*
0 Add four rect primitives between the rounded corners*
20,1,$1+$1,$2,$3,$4,$5,0*
20,1,$1+$1,$4,$5,$6,$7,0*
20,1,$1+$1,$6,$7,$8,$9,0*
20,1,$1+$1,$8,$9,$2,$3,0*%
G04 Aperture macros list end*
%ADD10C,1.400000*%
%ADD11C,1.600000*%
%ADD12O,1.600000X1.600000*%
%ADD13RoundRect,0.102000X-1.065000X1.065000X-1.065000X-1.065000X1.065000X-1.065000X1.065000X1.065000X0*%
%ADD14C,2.334000*%
%ADD15C,0.800000*%
%ADD16C,7.400000*%
%ADD17R,1.000000X1.000000*%
%ADD18R,1.600000X1.600000*%
%ADD19RoundRect,0.102000X0.862500X-0.862500X0.862500X0.862500X-0.862500X0.862500X-0.862500X-0.862500X0*%
%ADD20C,1.929000*%
%ADD21R,1.500000X1.050000*%
%ADD22O,1.500000X1.050000*%
%ADD23R,1.050000X1.500000*%
%ADD24O,1.050000X1.500000*%
%ADD25R,1.700000X1.700000*%
%ADD26O,1.700000X1.700000*%
%ADD27C,1.524000*%
G04 APERTURE END LIST*
D10*
%TO.C,C33*%
X35560000Y-55880000D03*
X35560000Y-53380000D03*
%TD*%
%TO.C,C32*%
X33020000Y-55880000D03*
X33020000Y-53380000D03*
%TD*%
%TO.C,C31*%
X60960000Y-55880000D03*
X60960000Y-53380000D03*
%TD*%
%TO.C,C30*%
X58420000Y-55860000D03*
X58420000Y-53360000D03*
%TD*%
%TO.C,C24*%
X86360000Y-43180000D03*
X86360000Y-45680000D03*
%TD*%
D11*
%TO.C,R3*%
X43140000Y-71120000D03*
D12*
X43140000Y-81280000D03*
%TD*%
D13*
%TO.C,J4*%
X114300000Y-40640000D03*
D14*
X114300000Y-44600000D03*
X114300000Y-48560000D03*
X114300000Y-52520000D03*
%TD*%
D11*
%TO.C,R9*%
X93980000Y-43180000D03*
D12*
X104140000Y-43180000D03*
%TD*%
D10*
%TO.C,C9*%
X63460000Y-76200000D03*
X65960000Y-76200000D03*
%TD*%
D15*
%TO.C,H1*%
X25165000Y-27940000D03*
X25977779Y-25977779D03*
X25977779Y-29902221D03*
X27940000Y-25165000D03*
D16*
X27940000Y-27940000D03*
D15*
X27940000Y-30715000D03*
X29902221Y-25977779D03*
X29902221Y-29902221D03*
X30715000Y-27940000D03*
%TD*%
%TO.C,H3*%
X25165000Y-114300000D03*
X25977779Y-112337779D03*
X25977779Y-116262221D03*
X27940000Y-111525000D03*
D16*
X27940000Y-114300000D03*
D15*
X27940000Y-117075000D03*
X29902221Y-112337779D03*
X29902221Y-116262221D03*
X30715000Y-114300000D03*
%TD*%
D11*
%TO.C,R21*%
X53340000Y-45720000D03*
D12*
X53340000Y-55880000D03*
%TD*%
D11*
%TO.C,R7*%
X83820000Y-60960000D03*
D12*
X93980000Y-60960000D03*
%TD*%
D10*
%TO.C,C16*%
X71120000Y-58420000D03*
X71120000Y-60920000D03*
%TD*%
D17*
%TO.C,TP12*%
X43180000Y-66040000D03*
%TD*%
D11*
%TO.C,R8*%
X48220000Y-81280000D03*
D12*
X48220000Y-71120000D03*
%TD*%
D18*
%TO.C,U5*%
X45720000Y-48260000D03*
D12*
X43180000Y-48260000D03*
X40640000Y-48260000D03*
X38100000Y-48260000D03*
X38100000Y-55880000D03*
X40640000Y-55880000D03*
X43180000Y-55880000D03*
X45720000Y-55880000D03*
%TD*%
D13*
%TO.C,J3*%
X114300000Y-78740000D03*
D14*
X114300000Y-82700000D03*
X114300000Y-86660000D03*
X114300000Y-90620000D03*
%TD*%
D17*
%TO.C,TP6*%
X78740000Y-27940000D03*
%TD*%
D11*
%TO.C,R5*%
X38060000Y-71120000D03*
D12*
X38060000Y-81280000D03*
%TD*%
D17*
%TO.C,TP9*%
X71120000Y-72390000D03*
%TD*%
D10*
%TO.C,C4*%
X86360000Y-55880000D03*
X86360000Y-53380000D03*
%TD*%
D11*
%TO.C,R22*%
X53340000Y-38100000D03*
D12*
X43180000Y-38100000D03*
%TD*%
D10*
%TO.C,C15*%
X73660000Y-58420000D03*
X73660000Y-60920000D03*
%TD*%
D11*
%TO.C,R2*%
X104140000Y-45720000D03*
D12*
X104140000Y-55880000D03*
%TD*%
D17*
%TO.C,TP2*%
X71120000Y-111760000D03*
%TD*%
%TO.C,TP1*%
X71120000Y-93980000D03*
%TD*%
D18*
%TO.C,U4*%
X91440000Y-78740000D03*
D12*
X91440000Y-81280000D03*
X91440000Y-83820000D03*
X91440000Y-86360000D03*
X99060000Y-86360000D03*
X99060000Y-83820000D03*
X99060000Y-81280000D03*
X99060000Y-78740000D03*
%TD*%
D11*
%TO.C,R25*%
X33020000Y-60960000D03*
D12*
X43180000Y-60960000D03*
%TD*%
D17*
%TO.C,TP7*%
X53340000Y-27940000D03*
%TD*%
D10*
%TO.C,C12*%
X101600000Y-78740000D03*
X104100000Y-78740000D03*
%TD*%
%TO.C,C10*%
X63500000Y-78740000D03*
X66000000Y-78740000D03*
%TD*%
D17*
%TO.C,TP10*%
X93980000Y-66040000D03*
%TD*%
D19*
%TO.C,PS1*%
X53340000Y-111760000D03*
D20*
X53340000Y-109220000D03*
X53340000Y-104140000D03*
X53340000Y-101600000D03*
X53340000Y-99060000D03*
%TD*%
D10*
%TO.C,C6*%
X71120000Y-99060000D03*
X71120000Y-101560000D03*
%TD*%
%TO.C,C19*%
X48260000Y-86360000D03*
X50760000Y-86360000D03*
%TD*%
D21*
%TO.C,U8*%
X66040000Y-107950000D03*
D22*
X66040000Y-106680000D03*
X66040000Y-105410000D03*
%TD*%
D10*
%TO.C,C21*%
X86360000Y-86360000D03*
X88860000Y-86360000D03*
%TD*%
D11*
%TO.C,R6*%
X93980000Y-33020000D03*
D12*
X104140000Y-33020000D03*
%TD*%
D17*
%TO.C,TP13*%
X69215000Y-83820000D03*
%TD*%
D15*
%TO.C,H4*%
X111525000Y-114300000D03*
X112337779Y-112337779D03*
X112337779Y-116262221D03*
X114300000Y-111525000D03*
D16*
X114300000Y-114300000D03*
D15*
X114300000Y-117075000D03*
X116262221Y-112337779D03*
X116262221Y-116262221D03*
X117075000Y-114300000D03*
%TD*%
D10*
%TO.C,C5*%
X60960000Y-99060000D03*
X60960000Y-101560000D03*
%TD*%
D11*
%TO.C,R11*%
X78740000Y-45720000D03*
D12*
X78740000Y-55880000D03*
%TD*%
D17*
%TO.C,TP8*%
X33020000Y-72390000D03*
%TD*%
D11*
%TO.C,C29*%
X42240000Y-111720000D03*
X42240000Y-109220000D03*
%TD*%
D10*
%TO.C,C1*%
X76200000Y-99060000D03*
X76200000Y-101560000D03*
%TD*%
D11*
%TO.C,R17*%
X58420000Y-60960000D03*
D12*
X68580000Y-60960000D03*
%TD*%
D11*
%TO.C,R13*%
X78740000Y-38100000D03*
D12*
X68580000Y-38100000D03*
%TD*%
D11*
%TO.C,R10*%
X66000000Y-91440000D03*
D12*
X66000000Y-81280000D03*
%TD*%
D10*
%TO.C,C2*%
X86360000Y-99060000D03*
X86360000Y-101560000D03*
%TD*%
D11*
%TO.C,R4*%
X104140000Y-38100000D03*
D12*
X93980000Y-38100000D03*
%TD*%
D11*
%TO.C,R18*%
X68580000Y-43180000D03*
D12*
X78740000Y-43180000D03*
%TD*%
D10*
%TO.C,C17*%
X48260000Y-58420000D03*
X48260000Y-60920000D03*
%TD*%
D11*
%TO.C,R23*%
X43180000Y-33020000D03*
D12*
X53340000Y-33020000D03*
%TD*%
D21*
%TO.C,U6*%
X81280000Y-101600000D03*
D22*
X81280000Y-100330000D03*
X81280000Y-99060000D03*
%TD*%
D10*
%TO.C,C26*%
X60960000Y-43220000D03*
X60960000Y-45720000D03*
%TD*%
%TO.C,C18*%
X45720000Y-58420000D03*
X45720000Y-60920000D03*
%TD*%
D18*
%TO.C,U2*%
X96520000Y-48260000D03*
D12*
X93980000Y-48260000D03*
X91440000Y-48260000D03*
X88900000Y-48260000D03*
X88900000Y-55880000D03*
X91440000Y-55880000D03*
X93980000Y-55880000D03*
X96520000Y-55880000D03*
%TD*%
D17*
%TO.C,TP3*%
X86360000Y-93980000D03*
%TD*%
D18*
%TO.C,U1*%
X53300000Y-78740000D03*
D12*
X53300000Y-81280000D03*
X53300000Y-83820000D03*
X53300000Y-86360000D03*
X60920000Y-86360000D03*
X60920000Y-83820000D03*
X60920000Y-81280000D03*
X60920000Y-78740000D03*
%TD*%
D11*
%TO.C,R15*%
X68580000Y-33020000D03*
D12*
X78740000Y-33020000D03*
%TD*%
D10*
%TO.C,C7*%
X60960000Y-106680000D03*
X60960000Y-109180000D03*
%TD*%
D11*
%TO.C,R26*%
X90170000Y-102870000D03*
D12*
X100330000Y-102870000D03*
%TD*%
D11*
%TO.C,R16*%
X76200000Y-71120000D03*
D12*
X76200000Y-81280000D03*
%TD*%
D11*
%TO.C,R19*%
X86360000Y-81280000D03*
D12*
X86360000Y-71120000D03*
%TD*%
D11*
%TO.C,R27*%
X43180000Y-43180000D03*
D12*
X53340000Y-43180000D03*
%TD*%
D10*
%TO.C,C13*%
X99060000Y-58420000D03*
X99060000Y-60920000D03*
%TD*%
D23*
%TO.C,U7*%
X67310000Y-99060000D03*
D24*
X66040000Y-99060000D03*
X64770000Y-99060000D03*
%TD*%
D10*
%TO.C,C23*%
X88900000Y-43180000D03*
X88900000Y-45680000D03*
%TD*%
D18*
%TO.C,U3*%
X71120000Y-48260000D03*
D12*
X68580000Y-48260000D03*
X66040000Y-48260000D03*
X63500000Y-48260000D03*
X63500000Y-55880000D03*
X66040000Y-55880000D03*
X68580000Y-55880000D03*
X71120000Y-55880000D03*
%TD*%
D11*
%TO.C,R12*%
X88900000Y-71120000D03*
D12*
X99060000Y-71120000D03*
%TD*%
D25*
%TO.C,J0*%
X37160000Y-106640000D03*
D26*
X37160000Y-109180000D03*
X37160000Y-111720000D03*
%TD*%
D27*
%TO.C,L1*%
X46990000Y-111760000D03*
X48990000Y-111760000D03*
%TD*%
D10*
%TO.C,C28*%
X35560000Y-43180000D03*
X35560000Y-45680000D03*
%TD*%
D17*
%TO.C,TP4*%
X100330000Y-93980000D03*
%TD*%
D11*
%TO.C,R20*%
X104140000Y-91440000D03*
D12*
X104140000Y-81280000D03*
%TD*%
D11*
%TO.C,R14*%
X81280000Y-71120000D03*
D12*
X81280000Y-81280000D03*
%TD*%
D10*
%TO.C,C25*%
X63500000Y-43220000D03*
X63500000Y-45720000D03*
%TD*%
%TO.C,C20*%
X48260000Y-88900000D03*
X50760000Y-88900000D03*
%TD*%
D15*
%TO.C,H2*%
X111525000Y-27940000D03*
X112337779Y-25977779D03*
X112337779Y-29902221D03*
X114300000Y-25165000D03*
D16*
X114300000Y-27940000D03*
D15*
X114300000Y-30715000D03*
X116262221Y-25977779D03*
X116262221Y-29902221D03*
X117075000Y-27940000D03*
%TD*%
D11*
%TO.C,R24*%
X100330000Y-99060000D03*
D12*
X90170000Y-99060000D03*
%TD*%
D10*
%TO.C,C8*%
X71120000Y-105410000D03*
X71120000Y-107910000D03*
%TD*%
%TO.C,C14*%
X96520000Y-58420000D03*
X96520000Y-60920000D03*
%TD*%
D17*
%TO.C,TP11*%
X68580000Y-66040000D03*
%TD*%
D11*
%TO.C,R1*%
X50760000Y-71120000D03*
D12*
X60920000Y-71120000D03*
%TD*%
D13*
%TO.C,J1*%
X27940000Y-78740000D03*
D14*
X27940000Y-82700000D03*
X27940000Y-86660000D03*
X27940000Y-90620000D03*
%TD*%
D17*
%TO.C,TP14*%
X107315000Y-83820000D03*
%TD*%
D13*
%TO.C,J2*%
X27940000Y-40640000D03*
D14*
X27940000Y-44600000D03*
X27940000Y-48560000D03*
X27940000Y-52520000D03*
%TD*%
D10*
%TO.C,C22*%
X86360000Y-88900000D03*
X88860000Y-88900000D03*
%TD*%
%TO.C,C3*%
X83820000Y-53340000D03*
X83820000Y-55840000D03*
%TD*%
D17*
%TO.C,TP5*%
X104140000Y-27940000D03*
%TD*%
D10*
%TO.C,C11*%
X101600000Y-76200000D03*
X104100000Y-76200000D03*
%TD*%
%TO.C,C27*%
X38100000Y-43220000D03*
X38100000Y-45720000D03*
%TD*%
M02*
