M48
; DRILL file {KiCad 8.0.2} date 2024-06-01T12:45:48-0600
; FORMAT={-:-/ absolute / inch / decimal}
; #@! TF.CreationDate,2024-06-01T12:45:48-06:00
; #@! TF.GenerationSoftware,Kicad,Pcbnew,8.0.2
; #@! TF.FileFunction,Plated,1,2,PTH
FMAT,2
INCH
; #@! TA.AperFunction,Plated,PTH,ViaDrill
T1C0.0157
; #@! TA.AperFunction,Plated,PTH,ComponentDrill
T2C0.0197
; #@! TA.AperFunction,Plated,PTH,ViaDrill
T3C0.0200
; #@! TA.AperFunction,Plated,PTH,ComponentDrill
T4C0.0276
; #@! TA.AperFunction,Plated,PTH,ComponentDrill
T5C0.0295
; #@! TA.AperFunction,Plated,PTH,ComponentDrill
T6C0.0315
; #@! TA.AperFunction,Plated,PTH,ComponentDrill
T7C0.0394
; #@! TA.AperFunction,Plated,PTH,ComponentDrill
T8C0.0400
; #@! TA.AperFunction,Plated,PTH,ComponentDrill
T9C0.0453
; #@! TA.AperFunction,Plated,PTH,ComponentDrill
T10C0.0701
; #@! TA.AperFunction,Plated,PTH,ComponentDrill
T11C0.1457
%
G90
G05
T1
X2.75Y-2.075
X3.8Y-2.0209
T2
X0.9907Y-1.1
X0.9907Y-4.5
X1.0227Y-1.0227
X1.0227Y-1.1773
X1.0227Y-4.4227
X1.0227Y-4.5773
X1.1Y-0.9907
X1.1Y-1.2093
X1.1Y-4.3907
X1.1Y-4.6093
X1.1773Y-1.0227
X1.1773Y-1.1773
X1.1773Y-4.4227
X1.1773Y-4.5773
X1.2093Y-1.1
X1.2093Y-4.5
X1.3Y-2.85
X1.7Y-2.6
X2.1Y-1.1
X2.7Y-2.6
X2.725Y-3.3
X2.8Y-2.85
X2.8Y-3.7
X2.8Y-4.4
X3.1Y-1.1
X3.4Y-3.7
X3.7Y-2.6
X3.95Y-3.7
X4.1Y-1.1
X4.225Y-3.3
X4.3907Y-1.1
X4.3907Y-4.5
X4.4227Y-1.0227
X4.4227Y-1.1773
X4.4227Y-4.4227
X4.4227Y-4.5773
X4.5Y-0.9907
X4.5Y-1.2093
X4.5Y-4.3907
X4.5Y-4.6093
X4.5773Y-1.0227
X4.5773Y-1.1773
X4.5773Y-4.4227
X4.5773Y-4.5773
X4.6093Y-1.1
X4.6093Y-4.5
T3
X1.9286Y-2.7
T4
X1.3Y-2.1016
X1.3Y-2.2
X1.4Y-1.7
X1.4Y-1.7984
X1.4Y-2.1016
X1.4Y-2.2
X1.5Y-1.7016
X1.5Y-1.8
X1.8Y-2.3
X1.8Y-2.3984
X1.9Y-2.3
X1.9Y-2.3984
X1.9Y-3.4
X1.9Y-3.5
X1.9984Y-3.4
X1.9984Y-3.5
X2.3Y-2.1008
X2.3Y-2.1992
X2.4Y-1.7016
X2.4Y-1.8
X2.4Y-2.1016
X2.4Y-2.2
X2.4Y-3.9
X2.4Y-3.9984
X2.4Y-4.2
X2.4Y-4.2984
X2.4984Y-3.0
X2.5Y-1.7016
X2.5Y-1.8
X2.5Y-3.1
X2.5969Y-3.0
X2.5984Y-3.1
X2.8Y-2.3
X2.8Y-2.3984
X2.8Y-3.9
X2.8Y-3.9984
X2.8Y-4.15
X2.8Y-4.2484
X2.9Y-2.3
X2.9Y-2.3984
X3.0Y-3.9
X3.0Y-3.9984
X3.3Y-2.1
X3.3Y-2.1984
X3.4Y-1.7
X3.4Y-1.7984
X3.4Y-2.1016
X3.4Y-2.2
X3.4Y-3.4
X3.4Y-3.5
X3.4Y-3.9
X3.4Y-3.9984
X3.4984Y-3.4
X3.4984Y-3.5
X3.5Y-1.7
X3.5Y-1.7984
X3.8Y-2.3
X3.8Y-2.3984
X3.9Y-2.3
X3.9Y-2.3984
X4.0Y-3.0
X4.0Y-3.1
X4.0984Y-3.0
X4.0984Y-3.1
T5
X2.55Y-3.9
X2.6Y-3.9
X2.6Y-4.15
X2.6Y-4.2
X2.6Y-4.25
X2.65Y-3.9
X3.2Y-3.9
X3.2Y-3.95
X3.2Y-4.0
T6
X1.3Y-2.4
X1.4984Y-2.8
X1.4984Y-3.2
X1.5Y-1.9
X1.5Y-2.2
X1.6Y-1.9
X1.6Y-2.2
X1.663Y-4.3
X1.663Y-4.3984
X1.6984Y-2.8
X1.6984Y-3.2
X1.7Y-1.3
X1.7Y-1.5
X1.7Y-1.7
X1.7Y-1.9
X1.7Y-2.2
X1.7Y-2.4
X1.8Y-1.9
X1.8Y-2.2
X1.8984Y-2.8
X1.8984Y-3.2
X1.9984Y-2.8
X2.0984Y-3.1
X2.0984Y-3.2
X2.0984Y-3.3
X2.0984Y-3.4
X2.1Y-1.3
X2.1Y-1.5
X2.1Y-1.7
X2.1Y-1.8
X2.1Y-2.2
X2.3Y-2.4
X2.3984Y-2.8
X2.3984Y-3.1
X2.3984Y-3.2
X2.3984Y-3.3
X2.3984Y-3.4
X2.5Y-1.9
X2.5Y-2.2
X2.5984Y-3.2
X2.5984Y-3.6
X2.6Y-1.9
X2.6Y-2.2
X2.7Y-1.3
X2.7Y-1.5
X2.7Y-1.7
X2.7Y-1.9
X2.7Y-2.2
X2.7Y-2.4
X2.8Y-1.9
X2.8Y-2.2
X3.0Y-2.8
X3.0Y-3.2
X3.1Y-1.3
X3.1Y-1.5
X3.1Y-1.7
X3.1Y-1.8
X3.1Y-2.2
X3.2Y-2.8
X3.2Y-3.2
X3.3Y-2.4
X3.4Y-2.8
X3.4Y-3.2
X3.5Y-1.9
X3.5Y-2.2
X3.5Y-2.8
X3.55Y-3.9
X3.55Y-4.05
X3.6Y-1.9
X3.6Y-2.2
X3.6Y-3.1
X3.6Y-3.2
X3.6Y-3.3
X3.6Y-3.4
X3.7Y-1.3
X3.7Y-1.5
X3.7Y-1.7
X3.7Y-1.9
X3.7Y-2.2
X3.7Y-2.4
X3.8Y-1.9
X3.8Y-2.2
X3.9Y-2.8
X3.9Y-3.1
X3.9Y-3.2
X3.9Y-3.3
X3.9Y-3.4
X3.95Y-3.9
X3.95Y-4.05
X4.1Y-1.3
X4.1Y-1.5
X4.1Y-1.7
X4.1Y-1.8
X4.1Y-2.2
X4.1Y-3.2
X4.1Y-3.6
T7
X1.463Y-4.1984
X1.463Y-4.2984
X1.463Y-4.3984
T8
X1.85Y-4.4
X1.9287Y-4.4
T9
X2.1Y-3.9
X2.1Y-4.0
X2.1Y-4.1
X2.1Y-4.3
X2.1Y-4.4
T10
X1.1Y-1.6
X1.1Y-1.7559
X1.1Y-1.9118
X1.1Y-2.0677
X1.1Y-3.1
X1.1Y-3.2559
X1.1Y-3.4118
X1.1Y-3.5677
X4.5Y-1.6
X4.5Y-1.7559
X4.5Y-1.9118
X4.5Y-2.0677
X4.5Y-3.1
X4.5Y-3.2559
X4.5Y-3.4118
X4.5Y-3.5677
T11
X1.1Y-1.1
X1.1Y-4.5
X4.5Y-1.1
X4.5Y-4.5
M30
